G04 #@! TF.GenerationSoftware,KiCad,Pcbnew,(6.0.11)*
G04 #@! TF.CreationDate,2023-02-25T22:20:46-07:00*
G04 #@! TF.ProjectId,Stubborness,53747562-626f-4726-9e65-73732e6b6963,rev?*
G04 #@! TF.SameCoordinates,Original*
G04 #@! TF.FileFunction,Soldermask,Bot*
G04 #@! TF.FilePolarity,Negative*
%FSLAX46Y46*%
G04 Gerber Fmt 4.6, Leading zero omitted, Abs format (unit mm)*
G04 Created by KiCad (PCBNEW (6.0.11)) date 2023-02-25 22:20:46*
%MOMM*%
%LPD*%
G01*
G04 APERTURE LIST*
G04 Aperture macros list*
%AMRoundRect*
0 Rectangle with rounded corners*
0 $1 Rounding radius*
0 $2 $3 $4 $5 $6 $7 $8 $9 X,Y pos of 4 corners*
0 Add a 4 corners polygon primitive as box body*
4,1,4,$2,$3,$4,$5,$6,$7,$8,$9,$2,$3,0*
0 Add four circle primitives for the rounded corners*
1,1,$1+$1,$2,$3*
1,1,$1+$1,$4,$5*
1,1,$1+$1,$6,$7*
1,1,$1+$1,$8,$9*
0 Add four rect primitives between the rounded corners*
20,1,$1+$1,$2,$3,$4,$5,0*
20,1,$1+$1,$4,$5,$6,$7,0*
20,1,$1+$1,$6,$7,$8,$9,0*
20,1,$1+$1,$8,$9,$2,$3,0*%
G04 Aperture macros list end*
%ADD10C,1.700000*%
%ADD11C,4.000000*%
%ADD12C,2.200000*%
%ADD13R,1.800000X1.100000*%
%ADD14RoundRect,0.250000X-0.450000X0.262500X-0.450000X-0.262500X0.450000X-0.262500X0.450000X0.262500X0*%
%ADD15RoundRect,0.250000X-0.475000X0.250000X-0.475000X-0.250000X0.475000X-0.250000X0.475000X0.250000X0*%
%ADD16RoundRect,0.250000X0.475000X-0.250000X0.475000X0.250000X-0.475000X0.250000X-0.475000X-0.250000X0*%
%ADD17R,0.500000X2.250000*%
%ADD18O,1.700000X2.700000*%
%ADD19RoundRect,0.250000X0.250000X0.475000X-0.250000X0.475000X-0.250000X-0.475000X0.250000X-0.475000X0*%
%ADD20R,1.500000X0.550000*%
%ADD21R,0.550000X1.500000*%
%ADD22R,1.200000X0.900000*%
%ADD23RoundRect,0.250000X-0.250000X-0.475000X0.250000X-0.475000X0.250000X0.475000X-0.250000X0.475000X0*%
%ADD24R,1.400000X1.200000*%
%ADD25RoundRect,0.250000X0.450000X-0.262500X0.450000X0.262500X-0.450000X0.262500X-0.450000X-0.262500X0*%
%ADD26RoundRect,0.250000X-0.625000X0.375000X-0.625000X-0.375000X0.625000X-0.375000X0.625000X0.375000X0*%
G04 APERTURE END LIST*
D10*
G04 #@! TO.C,MX4*
X103505000Y-153987500D03*
X93345000Y-153987500D03*
D11*
X98425000Y-153987500D03*
D12*
X100965000Y-148907500D03*
X94615000Y-151447500D03*
G04 #@! TD*
D10*
G04 #@! TO.C,MX3*
X74295000Y-153987500D03*
X84455000Y-153987500D03*
D11*
X79375000Y-153987500D03*
D12*
X81915000Y-148907500D03*
X75565000Y-151447500D03*
G04 #@! TD*
D10*
G04 #@! TO.C,MX1*
X84455000Y-134937500D03*
D11*
X79375000Y-134937500D03*
D10*
X74295000Y-134937500D03*
D12*
X81915000Y-129857500D03*
X75565000Y-132397500D03*
G04 #@! TD*
D11*
G04 #@! TO.C,MX2*
X98425000Y-134937500D03*
D10*
X93345000Y-134937500D03*
X103505000Y-134937500D03*
D12*
X100965000Y-129857500D03*
X94615000Y-132397500D03*
G04 #@! TD*
D13*
G04 #@! TO.C,SW1*
X34111000Y-160600000D03*
X40311000Y-156900000D03*
X34111000Y-156900000D03*
X40311000Y-160600000D03*
G04 #@! TD*
D14*
G04 #@! TO.C,R1*
X35052000Y-136247500D03*
X35052000Y-138072500D03*
G04 #@! TD*
D15*
G04 #@! TO.C,C3*
X62682500Y-132781000D03*
X62682500Y-134681000D03*
G04 #@! TD*
D16*
G04 #@! TO.C,C4*
X53919500Y-134681000D03*
X53919500Y-132781000D03*
G04 #@! TD*
D17*
G04 #@! TO.C,USB1*
X38684000Y-131627000D03*
X37884000Y-131627000D03*
X37084000Y-131627000D03*
X36284000Y-131627000D03*
X35484000Y-131627000D03*
D18*
X40734000Y-131627000D03*
X33434000Y-127127000D03*
X40734000Y-127127000D03*
X33434000Y-131627000D03*
G04 #@! TD*
D19*
G04 #@! TO.C,C6*
X49083000Y-146050000D03*
X47183000Y-146050000D03*
G04 #@! TD*
D14*
G04 #@! TO.C,R2*
X38735000Y-136247500D03*
X38735000Y-138072500D03*
G04 #@! TD*
D20*
G04 #@! TO.C,U1*
X52847000Y-150685000D03*
X52847000Y-149885000D03*
X52847000Y-149085000D03*
X52847000Y-148285000D03*
X52847000Y-147485000D03*
X52847000Y-146685000D03*
X52847000Y-145885000D03*
X52847000Y-145085000D03*
X52847000Y-144285000D03*
X52847000Y-143485000D03*
X52847000Y-142685000D03*
D21*
X54547000Y-140985000D03*
X55347000Y-140985000D03*
X56147000Y-140985000D03*
X56947000Y-140985000D03*
X57747000Y-140985000D03*
X58547000Y-140985000D03*
X59347000Y-140985000D03*
X60147000Y-140985000D03*
X60947000Y-140985000D03*
X61747000Y-140985000D03*
X62547000Y-140985000D03*
D20*
X64247000Y-142685000D03*
X64247000Y-143485000D03*
X64247000Y-144285000D03*
X64247000Y-145085000D03*
X64247000Y-145885000D03*
X64247000Y-146685000D03*
X64247000Y-147485000D03*
X64247000Y-148285000D03*
X64247000Y-149085000D03*
X64247000Y-149885000D03*
X64247000Y-150685000D03*
D21*
X62547000Y-152385000D03*
X61747000Y-152385000D03*
X60947000Y-152385000D03*
X60147000Y-152385000D03*
X59347000Y-152385000D03*
X58547000Y-152385000D03*
X57747000Y-152385000D03*
X56947000Y-152385000D03*
X56147000Y-152385000D03*
X55347000Y-152385000D03*
X54547000Y-152385000D03*
G04 #@! TD*
D16*
G04 #@! TO.C,C1*
X50038000Y-139634000D03*
X50038000Y-137734000D03*
G04 #@! TD*
D22*
G04 #@! TO.C,D3*
X87312500Y-155637500D03*
X87312500Y-152337500D03*
G04 #@! TD*
G04 #@! TO.C,D2*
X106362500Y-136587500D03*
X106362500Y-133287500D03*
G04 #@! TD*
D23*
G04 #@! TO.C,C7*
X53025000Y-155702000D03*
X54925000Y-155702000D03*
G04 #@! TD*
D14*
G04 #@! TO.C,R4*
X67691000Y-150725500D03*
X67691000Y-152550500D03*
G04 #@! TD*
D24*
G04 #@! TO.C,Y1*
X59337500Y-134581000D03*
X57137500Y-134581000D03*
X57137500Y-132881000D03*
X59337500Y-132881000D03*
G04 #@! TD*
D25*
G04 #@! TO.C,R3*
X46736000Y-139620000D03*
X46736000Y-137795000D03*
G04 #@! TD*
D19*
G04 #@! TO.C,C5*
X64069000Y-155702000D03*
X62169000Y-155702000D03*
G04 #@! TD*
D22*
G04 #@! TO.C,D4*
X106362500Y-155637500D03*
X106362500Y-152337500D03*
G04 #@! TD*
D16*
G04 #@! TO.C,C2*
X67818000Y-142682000D03*
X67818000Y-140782000D03*
G04 #@! TD*
D22*
G04 #@! TO.C,D1*
X87312500Y-136587500D03*
X87312500Y-133287500D03*
G04 #@! TD*
D26*
G04 #@! TO.C,F1*
X31750000Y-142237000D03*
X31750000Y-145037000D03*
G04 #@! TD*
M02*
