M48
; DRILL file {KiCad (6.0.11)} date Sat Feb 25 22:31:14 2023
; FORMAT={-:-/ absolute / inch / decimal}
; #@! TF.CreationDate,2023-02-25T22:31:14-07:00
; #@! TF.GenerationSoftware,Kicad,Pcbnew,(6.0.11)
; #@! TF.FileFunction,Plated,1,2,PTH
FMAT,2
INCH
; #@! TA.AperFunction,Plated,PTH,ViaDrill
T1C0.0157
; #@! TA.AperFunction,Plated,PTH,ComponentDrill
T2C0.0276
; #@! TA.AperFunction,Plated,PTH,ComponentDrill
T3C0.0591
%
G90
G05
T1
X1.275Y-6.115
X1.635Y-5.605
X1.69Y-6.175
X1.75Y-5.425
X1.9019Y-5.4969
X1.985Y-5.58
X2.005Y-5.72
X2.005Y-5.935
X2.085Y-6.07
X2.145Y-5.48
X2.2478Y-5.165
X2.27Y-5.39
X2.375Y-6.13
X2.525Y-6.07
X2.595Y-5.715
X2.63Y-5.735
X2.665Y-6.13
X2.67Y-5.75
X3.435Y-5.18
X3.435Y-5.925
X3.515Y-5.375
X3.52Y-6.13
X4.185Y-5.175
X4.185Y-5.92
X4.19Y-5.45
X4.19Y-6.205
T3
X2.975Y-5.2125
X2.975Y-5.9625
X3.225Y-5.1125
X3.225Y-5.8625
X3.725Y-5.2125
X3.725Y-5.9625
X3.975Y-5.1125
X3.975Y-5.8625
T2
G00X1.3163Y-4.9814
M15
G01X1.3163Y-5.0286
M16
G05
G00X1.3163Y-5.1585
M15
G01X1.3163Y-5.2058
M16
G05
G00X1.6037Y-4.9814
M15
G01X1.6037Y-5.0286
M16
G05
G00X1.6037Y-5.1585
M15
G01X1.6037Y-5.2058
M16
G05
T0
M30
