G04 #@! TF.GenerationSoftware,KiCad,Pcbnew,(6.0.11)*
G04 #@! TF.CreationDate,2023-02-25T22:31:06-07:00*
G04 #@! TF.ProjectId,Stubborness,53747562-626f-4726-9e65-73732e6b6963,rev?*
G04 #@! TF.SameCoordinates,Original*
G04 #@! TF.FileFunction,Legend,Bot*
G04 #@! TF.FilePolarity,Positive*
%FSLAX46Y46*%
G04 Gerber Fmt 4.6, Leading zero omitted, Abs format (unit mm)*
G04 Created by KiCad (PCBNEW (6.0.11)) date 2023-02-25 22:31:06*
%MOMM*%
%LPD*%
G01*
G04 APERTURE LIST*
G04 Aperture macros list*
%AMRoundRect*
0 Rectangle with rounded corners*
0 $1 Rounding radius*
0 $2 $3 $4 $5 $6 $7 $8 $9 X,Y pos of 4 corners*
0 Add a 4 corners polygon primitive as box body*
4,1,4,$2,$3,$4,$5,$6,$7,$8,$9,$2,$3,0*
0 Add four circle primitives for the rounded corners*
1,1,$1+$1,$2,$3*
1,1,$1+$1,$4,$5*
1,1,$1+$1,$6,$7*
1,1,$1+$1,$8,$9*
0 Add four rect primitives between the rounded corners*
20,1,$1+$1,$2,$3,$4,$5,0*
20,1,$1+$1,$4,$5,$6,$7,0*
20,1,$1+$1,$6,$7,$8,$9,0*
20,1,$1+$1,$8,$9,$2,$3,0*%
G04 Aperture macros list end*
%ADD10C,0.150000*%
%ADD11C,0.120000*%
%ADD12C,1.700000*%
%ADD13C,4.000000*%
%ADD14C,2.200000*%
%ADD15R,1.800000X1.100000*%
%ADD16RoundRect,0.250000X-0.450000X0.262500X-0.450000X-0.262500X0.450000X-0.262500X0.450000X0.262500X0*%
%ADD17RoundRect,0.250000X-0.475000X0.250000X-0.475000X-0.250000X0.475000X-0.250000X0.475000X0.250000X0*%
%ADD18RoundRect,0.250000X0.475000X-0.250000X0.475000X0.250000X-0.475000X0.250000X-0.475000X-0.250000X0*%
%ADD19R,0.500000X2.250000*%
%ADD20O,1.700000X2.700000*%
%ADD21RoundRect,0.250000X0.250000X0.475000X-0.250000X0.475000X-0.250000X-0.475000X0.250000X-0.475000X0*%
%ADD22R,1.500000X0.550000*%
%ADD23R,0.550000X1.500000*%
%ADD24R,1.200000X0.900000*%
%ADD25RoundRect,0.250000X-0.250000X-0.475000X0.250000X-0.475000X0.250000X0.475000X-0.250000X0.475000X0*%
%ADD26R,1.400000X1.200000*%
%ADD27RoundRect,0.250000X0.450000X-0.262500X0.450000X0.262500X-0.450000X0.262500X-0.450000X-0.262500X0*%
%ADD28RoundRect,0.250000X-0.625000X0.375000X-0.625000X-0.375000X0.625000X-0.375000X0.625000X0.375000X0*%
G04 APERTURE END LIST*
D10*
G04 #@! TO.C,SW1*
X38544333Y-163218761D02*
X38401476Y-163266380D01*
X38163380Y-163266380D01*
X38068142Y-163218761D01*
X38020523Y-163171142D01*
X37972904Y-163075904D01*
X37972904Y-162980666D01*
X38020523Y-162885428D01*
X38068142Y-162837809D01*
X38163380Y-162790190D01*
X38353857Y-162742571D01*
X38449095Y-162694952D01*
X38496714Y-162647333D01*
X38544333Y-162552095D01*
X38544333Y-162456857D01*
X38496714Y-162361619D01*
X38449095Y-162314000D01*
X38353857Y-162266380D01*
X38115761Y-162266380D01*
X37972904Y-162314000D01*
X37639571Y-162266380D02*
X37401476Y-163266380D01*
X37211000Y-162552095D01*
X37020523Y-163266380D01*
X36782428Y-162266380D01*
X35877666Y-163266380D02*
X36449095Y-163266380D01*
X36163380Y-163266380D02*
X36163380Y-162266380D01*
X36258619Y-162409238D01*
X36353857Y-162504476D01*
X36449095Y-162552095D01*
G04 #@! TO.C,R1*
X33854380Y-136993333D02*
X33378190Y-136660000D01*
X33854380Y-136421904D02*
X32854380Y-136421904D01*
X32854380Y-136802857D01*
X32902000Y-136898095D01*
X32949619Y-136945714D01*
X33044857Y-136993333D01*
X33187714Y-136993333D01*
X33282952Y-136945714D01*
X33330571Y-136898095D01*
X33378190Y-136802857D01*
X33378190Y-136421904D01*
X33854380Y-137945714D02*
X33854380Y-137374285D01*
X33854380Y-137660000D02*
X32854380Y-137660000D01*
X32997238Y-137564761D01*
X33092476Y-137469523D01*
X33140095Y-137374285D01*
G04 #@! TO.C,C3*
X61359642Y-133564333D02*
X61407261Y-133516714D01*
X61454880Y-133373857D01*
X61454880Y-133278619D01*
X61407261Y-133135761D01*
X61312023Y-133040523D01*
X61216785Y-132992904D01*
X61026309Y-132945285D01*
X60883452Y-132945285D01*
X60692976Y-132992904D01*
X60597738Y-133040523D01*
X60502500Y-133135761D01*
X60454880Y-133278619D01*
X60454880Y-133373857D01*
X60502500Y-133516714D01*
X60550119Y-133564333D01*
X60454880Y-133897666D02*
X60454880Y-134516714D01*
X60835833Y-134183380D01*
X60835833Y-134326238D01*
X60883452Y-134421476D01*
X60931071Y-134469095D01*
X61026309Y-134516714D01*
X61264404Y-134516714D01*
X61359642Y-134469095D01*
X61407261Y-134421476D01*
X61454880Y-134326238D01*
X61454880Y-134040523D01*
X61407261Y-133945285D01*
X61359642Y-133897666D01*
G04 #@! TO.C,C4*
X55956642Y-133564333D02*
X56004261Y-133516714D01*
X56051880Y-133373857D01*
X56051880Y-133278619D01*
X56004261Y-133135761D01*
X55909023Y-133040523D01*
X55813785Y-132992904D01*
X55623309Y-132945285D01*
X55480452Y-132945285D01*
X55289976Y-132992904D01*
X55194738Y-133040523D01*
X55099500Y-133135761D01*
X55051880Y-133278619D01*
X55051880Y-133373857D01*
X55099500Y-133516714D01*
X55147119Y-133564333D01*
X55385214Y-134421476D02*
X56051880Y-134421476D01*
X55004261Y-134183380D02*
X55718547Y-133945285D01*
X55718547Y-134564333D01*
G04 #@! TO.C,USB1*
X38822095Y-128611380D02*
X38822095Y-129420904D01*
X38774476Y-129516142D01*
X38726857Y-129563761D01*
X38631619Y-129611380D01*
X38441142Y-129611380D01*
X38345904Y-129563761D01*
X38298285Y-129516142D01*
X38250666Y-129420904D01*
X38250666Y-128611380D01*
X37822095Y-129563761D02*
X37679238Y-129611380D01*
X37441142Y-129611380D01*
X37345904Y-129563761D01*
X37298285Y-129516142D01*
X37250666Y-129420904D01*
X37250666Y-129325666D01*
X37298285Y-129230428D01*
X37345904Y-129182809D01*
X37441142Y-129135190D01*
X37631619Y-129087571D01*
X37726857Y-129039952D01*
X37774476Y-128992333D01*
X37822095Y-128897095D01*
X37822095Y-128801857D01*
X37774476Y-128706619D01*
X37726857Y-128659000D01*
X37631619Y-128611380D01*
X37393523Y-128611380D01*
X37250666Y-128659000D01*
X36488761Y-129087571D02*
X36345904Y-129135190D01*
X36298285Y-129182809D01*
X36250666Y-129278047D01*
X36250666Y-129420904D01*
X36298285Y-129516142D01*
X36345904Y-129563761D01*
X36441142Y-129611380D01*
X36822095Y-129611380D01*
X36822095Y-128611380D01*
X36488761Y-128611380D01*
X36393523Y-128659000D01*
X36345904Y-128706619D01*
X36298285Y-128801857D01*
X36298285Y-128897095D01*
X36345904Y-128992333D01*
X36393523Y-129039952D01*
X36488761Y-129087571D01*
X36822095Y-129087571D01*
X35298285Y-129611380D02*
X35869714Y-129611380D01*
X35584000Y-129611380D02*
X35584000Y-128611380D01*
X35679238Y-128754238D01*
X35774476Y-128849476D01*
X35869714Y-128897095D01*
G04 #@! TO.C,C6*
X48299666Y-144727142D02*
X48347285Y-144774761D01*
X48490142Y-144822380D01*
X48585380Y-144822380D01*
X48728238Y-144774761D01*
X48823476Y-144679523D01*
X48871095Y-144584285D01*
X48918714Y-144393809D01*
X48918714Y-144250952D01*
X48871095Y-144060476D01*
X48823476Y-143965238D01*
X48728238Y-143870000D01*
X48585380Y-143822380D01*
X48490142Y-143822380D01*
X48347285Y-143870000D01*
X48299666Y-143917619D01*
X47442523Y-143822380D02*
X47633000Y-143822380D01*
X47728238Y-143870000D01*
X47775857Y-143917619D01*
X47871095Y-144060476D01*
X47918714Y-144250952D01*
X47918714Y-144631904D01*
X47871095Y-144727142D01*
X47823476Y-144774761D01*
X47728238Y-144822380D01*
X47537761Y-144822380D01*
X47442523Y-144774761D01*
X47394904Y-144727142D01*
X47347285Y-144631904D01*
X47347285Y-144393809D01*
X47394904Y-144298571D01*
X47442523Y-144250952D01*
X47537761Y-144203333D01*
X47728238Y-144203333D01*
X47823476Y-144250952D01*
X47871095Y-144298571D01*
X47918714Y-144393809D01*
G04 #@! TO.C,R2*
X37537380Y-136993333D02*
X37061190Y-136660000D01*
X37537380Y-136421904D02*
X36537380Y-136421904D01*
X36537380Y-136802857D01*
X36585000Y-136898095D01*
X36632619Y-136945714D01*
X36727857Y-136993333D01*
X36870714Y-136993333D01*
X36965952Y-136945714D01*
X37013571Y-136898095D01*
X37061190Y-136802857D01*
X37061190Y-136421904D01*
X36632619Y-137374285D02*
X36585000Y-137421904D01*
X36537380Y-137517142D01*
X36537380Y-137755238D01*
X36585000Y-137850476D01*
X36632619Y-137898095D01*
X36727857Y-137945714D01*
X36823095Y-137945714D01*
X36965952Y-137898095D01*
X37537380Y-137326666D01*
X37537380Y-137945714D01*
G04 #@! TO.C,U1*
X59308904Y-153587380D02*
X59308904Y-154396904D01*
X59261285Y-154492142D01*
X59213666Y-154539761D01*
X59118428Y-154587380D01*
X58927952Y-154587380D01*
X58832714Y-154539761D01*
X58785095Y-154492142D01*
X58737476Y-154396904D01*
X58737476Y-153587380D01*
X57737476Y-154587380D02*
X58308904Y-154587380D01*
X58023190Y-154587380D02*
X58023190Y-153587380D01*
X58118428Y-153730238D01*
X58213666Y-153825476D01*
X58308904Y-153873095D01*
G04 #@! TO.C,C1*
X52075142Y-138517333D02*
X52122761Y-138469714D01*
X52170380Y-138326857D01*
X52170380Y-138231619D01*
X52122761Y-138088761D01*
X52027523Y-137993523D01*
X51932285Y-137945904D01*
X51741809Y-137898285D01*
X51598952Y-137898285D01*
X51408476Y-137945904D01*
X51313238Y-137993523D01*
X51218000Y-138088761D01*
X51170380Y-138231619D01*
X51170380Y-138326857D01*
X51218000Y-138469714D01*
X51265619Y-138517333D01*
X52170380Y-139469714D02*
X52170380Y-138898285D01*
X52170380Y-139184000D02*
X51170380Y-139184000D01*
X51313238Y-139088761D01*
X51408476Y-138993523D01*
X51456095Y-138898285D01*
G04 #@! TO.C,D3*
X89764880Y-153249404D02*
X88764880Y-153249404D01*
X88764880Y-153487500D01*
X88812500Y-153630357D01*
X88907738Y-153725595D01*
X89002976Y-153773214D01*
X89193452Y-153820833D01*
X89336309Y-153820833D01*
X89526785Y-153773214D01*
X89622023Y-153725595D01*
X89717261Y-153630357D01*
X89764880Y-153487500D01*
X89764880Y-153249404D01*
X88764880Y-154154166D02*
X88764880Y-154773214D01*
X89145833Y-154439880D01*
X89145833Y-154582738D01*
X89193452Y-154677976D01*
X89241071Y-154725595D01*
X89336309Y-154773214D01*
X89574404Y-154773214D01*
X89669642Y-154725595D01*
X89717261Y-154677976D01*
X89764880Y-154582738D01*
X89764880Y-154297023D01*
X89717261Y-154201785D01*
X89669642Y-154154166D01*
G04 #@! TO.C,D2*
X108814880Y-134199404D02*
X107814880Y-134199404D01*
X107814880Y-134437500D01*
X107862500Y-134580357D01*
X107957738Y-134675595D01*
X108052976Y-134723214D01*
X108243452Y-134770833D01*
X108386309Y-134770833D01*
X108576785Y-134723214D01*
X108672023Y-134675595D01*
X108767261Y-134580357D01*
X108814880Y-134437500D01*
X108814880Y-134199404D01*
X107910119Y-135151785D02*
X107862500Y-135199404D01*
X107814880Y-135294642D01*
X107814880Y-135532738D01*
X107862500Y-135627976D01*
X107910119Y-135675595D01*
X108005357Y-135723214D01*
X108100595Y-135723214D01*
X108243452Y-135675595D01*
X108814880Y-135104166D01*
X108814880Y-135723214D01*
G04 #@! TO.C,C7*
X54141666Y-157739142D02*
X54189285Y-157786761D01*
X54332142Y-157834380D01*
X54427380Y-157834380D01*
X54570238Y-157786761D01*
X54665476Y-157691523D01*
X54713095Y-157596285D01*
X54760714Y-157405809D01*
X54760714Y-157262952D01*
X54713095Y-157072476D01*
X54665476Y-156977238D01*
X54570238Y-156882000D01*
X54427380Y-156834380D01*
X54332142Y-156834380D01*
X54189285Y-156882000D01*
X54141666Y-156929619D01*
X53808333Y-156834380D02*
X53141666Y-156834380D01*
X53570238Y-157834380D01*
G04 #@! TO.C,R4*
X66493380Y-151471333D02*
X66017190Y-151138000D01*
X66493380Y-150899904D02*
X65493380Y-150899904D01*
X65493380Y-151280857D01*
X65541000Y-151376095D01*
X65588619Y-151423714D01*
X65683857Y-151471333D01*
X65826714Y-151471333D01*
X65921952Y-151423714D01*
X65969571Y-151376095D01*
X66017190Y-151280857D01*
X66017190Y-150899904D01*
X65826714Y-152328476D02*
X66493380Y-152328476D01*
X65445761Y-152090380D02*
X66160047Y-151852285D01*
X66160047Y-152471333D01*
G04 #@! TO.C,Y1*
X58713690Y-131257190D02*
X58713690Y-131733380D01*
X59047023Y-130733380D02*
X58713690Y-131257190D01*
X58380357Y-130733380D01*
X57523214Y-131733380D02*
X58094642Y-131733380D01*
X57808928Y-131733380D02*
X57808928Y-130733380D01*
X57904166Y-130876238D01*
X57999404Y-130971476D01*
X58094642Y-131019095D01*
G04 #@! TO.C,R3*
X48838380Y-138540833D02*
X48362190Y-138207500D01*
X48838380Y-137969404D02*
X47838380Y-137969404D01*
X47838380Y-138350357D01*
X47886000Y-138445595D01*
X47933619Y-138493214D01*
X48028857Y-138540833D01*
X48171714Y-138540833D01*
X48266952Y-138493214D01*
X48314571Y-138445595D01*
X48362190Y-138350357D01*
X48362190Y-137969404D01*
X47838380Y-138874166D02*
X47838380Y-139493214D01*
X48219333Y-139159880D01*
X48219333Y-139302738D01*
X48266952Y-139397976D01*
X48314571Y-139445595D01*
X48409809Y-139493214D01*
X48647904Y-139493214D01*
X48743142Y-139445595D01*
X48790761Y-139397976D01*
X48838380Y-139302738D01*
X48838380Y-139017023D01*
X48790761Y-138921785D01*
X48743142Y-138874166D01*
G04 #@! TO.C,C5*
X63285666Y-154379142D02*
X63333285Y-154426761D01*
X63476142Y-154474380D01*
X63571380Y-154474380D01*
X63714238Y-154426761D01*
X63809476Y-154331523D01*
X63857095Y-154236285D01*
X63904714Y-154045809D01*
X63904714Y-153902952D01*
X63857095Y-153712476D01*
X63809476Y-153617238D01*
X63714238Y-153522000D01*
X63571380Y-153474380D01*
X63476142Y-153474380D01*
X63333285Y-153522000D01*
X63285666Y-153569619D01*
X62380904Y-153474380D02*
X62857095Y-153474380D01*
X62904714Y-153950571D01*
X62857095Y-153902952D01*
X62761857Y-153855333D01*
X62523761Y-153855333D01*
X62428523Y-153902952D01*
X62380904Y-153950571D01*
X62333285Y-154045809D01*
X62333285Y-154283904D01*
X62380904Y-154379142D01*
X62428523Y-154426761D01*
X62523761Y-154474380D01*
X62761857Y-154474380D01*
X62857095Y-154426761D01*
X62904714Y-154379142D01*
G04 #@! TO.C,D4*
X108814880Y-153249404D02*
X107814880Y-153249404D01*
X107814880Y-153487500D01*
X107862500Y-153630357D01*
X107957738Y-153725595D01*
X108052976Y-153773214D01*
X108243452Y-153820833D01*
X108386309Y-153820833D01*
X108576785Y-153773214D01*
X108672023Y-153725595D01*
X108767261Y-153630357D01*
X108814880Y-153487500D01*
X108814880Y-153249404D01*
X108148214Y-154677976D02*
X108814880Y-154677976D01*
X107767261Y-154439880D02*
X108481547Y-154201785D01*
X108481547Y-154820833D01*
G04 #@! TO.C,C2*
X69855142Y-141565333D02*
X69902761Y-141517714D01*
X69950380Y-141374857D01*
X69950380Y-141279619D01*
X69902761Y-141136761D01*
X69807523Y-141041523D01*
X69712285Y-140993904D01*
X69521809Y-140946285D01*
X69378952Y-140946285D01*
X69188476Y-140993904D01*
X69093238Y-141041523D01*
X68998000Y-141136761D01*
X68950380Y-141279619D01*
X68950380Y-141374857D01*
X68998000Y-141517714D01*
X69045619Y-141565333D01*
X69045619Y-141946285D02*
X68998000Y-141993904D01*
X68950380Y-142089142D01*
X68950380Y-142327238D01*
X68998000Y-142422476D01*
X69045619Y-142470095D01*
X69140857Y-142517714D01*
X69236095Y-142517714D01*
X69378952Y-142470095D01*
X69950380Y-141898666D01*
X69950380Y-142517714D01*
G04 #@! TO.C,D1*
X89764880Y-134199404D02*
X88764880Y-134199404D01*
X88764880Y-134437500D01*
X88812500Y-134580357D01*
X88907738Y-134675595D01*
X89002976Y-134723214D01*
X89193452Y-134770833D01*
X89336309Y-134770833D01*
X89526785Y-134723214D01*
X89622023Y-134675595D01*
X89717261Y-134580357D01*
X89764880Y-134437500D01*
X89764880Y-134199404D01*
X89764880Y-135723214D02*
X89764880Y-135151785D01*
X89764880Y-135437500D02*
X88764880Y-135437500D01*
X88907738Y-135342261D01*
X89002976Y-135247023D01*
X89050595Y-135151785D01*
G04 #@! TO.C,F1*
X29858571Y-143303666D02*
X29858571Y-142970333D01*
X30382380Y-142970333D02*
X29382380Y-142970333D01*
X29382380Y-143446523D01*
X30382380Y-144351285D02*
X30382380Y-143779857D01*
X30382380Y-144065571D02*
X29382380Y-144065571D01*
X29525238Y-143970333D01*
X29620476Y-143875095D01*
X29668095Y-143779857D01*
G04 #@! TO.C,SW1*
X39811000Y-156150000D02*
X34611000Y-156150000D01*
X34611000Y-156150000D02*
X34611000Y-161350000D01*
X39811000Y-161350000D02*
X39811000Y-156150000D01*
X34611000Y-161350000D02*
X39811000Y-161350000D01*
X38211000Y-158750000D02*
G75*
G03*
X38211000Y-158750000I-1000000J0D01*
G01*
D11*
G04 #@! TO.C,R1*
X35787000Y-136932936D02*
X35787000Y-137387064D01*
X34317000Y-136932936D02*
X34317000Y-137387064D01*
G04 #@! TO.C,C3*
X61947500Y-133469748D02*
X61947500Y-133992252D01*
X63417500Y-133469748D02*
X63417500Y-133992252D01*
G04 #@! TO.C,C4*
X54654500Y-133992252D02*
X54654500Y-133469748D01*
X53184500Y-133992252D02*
X53184500Y-133469748D01*
D10*
G04 #@! TO.C,USB1*
X33234000Y-132577000D02*
X40934000Y-132577000D01*
X40934000Y-127127000D02*
X40934000Y-132577000D01*
X33234000Y-127127000D02*
X33234000Y-132577000D01*
D11*
G04 #@! TO.C,C6*
X48394252Y-146785000D02*
X47871748Y-146785000D01*
X48394252Y-145315000D02*
X47871748Y-145315000D01*
G04 #@! TO.C,R2*
X38000000Y-136932936D02*
X38000000Y-137387064D01*
X39470000Y-136932936D02*
X39470000Y-137387064D01*
D10*
G04 #@! TO.C,U1*
X53372000Y-151285000D02*
X52097000Y-151285000D01*
X53372000Y-151860000D02*
X53372000Y-151285000D01*
X63722000Y-141510000D02*
X63722000Y-142185000D01*
X53372000Y-141510000D02*
X53372000Y-142185000D01*
X53372000Y-141510000D02*
X54047000Y-141510000D01*
X53372000Y-151860000D02*
X54047000Y-151860000D01*
X63722000Y-151860000D02*
X63047000Y-151860000D01*
X63722000Y-141510000D02*
X63047000Y-141510000D01*
X63722000Y-151860000D02*
X63722000Y-151185000D01*
D11*
G04 #@! TO.C,C1*
X49303000Y-138945252D02*
X49303000Y-138422748D01*
X50773000Y-138945252D02*
X50773000Y-138422748D01*
G04 #@! TO.C,D3*
X88312500Y-156237500D02*
X88312500Y-152337500D01*
X88312500Y-156237500D02*
X86312500Y-156237500D01*
X86312500Y-156237500D02*
X86312500Y-152337500D01*
G04 #@! TO.C,D2*
X107362500Y-137187500D02*
X107362500Y-133287500D01*
X105362500Y-137187500D02*
X105362500Y-133287500D01*
X107362500Y-137187500D02*
X105362500Y-137187500D01*
G04 #@! TO.C,C7*
X53713748Y-154967000D02*
X54236252Y-154967000D01*
X53713748Y-156437000D02*
X54236252Y-156437000D01*
G04 #@! TO.C,R4*
X66956000Y-151410936D02*
X66956000Y-151865064D01*
X68426000Y-151410936D02*
X68426000Y-151865064D01*
G04 #@! TO.C,Y1*
X60237500Y-135381000D02*
X56237500Y-135381000D01*
X60237500Y-132081000D02*
X60237500Y-135381000D01*
G04 #@! TO.C,R3*
X47471000Y-138934564D02*
X47471000Y-138480436D01*
X46001000Y-138934564D02*
X46001000Y-138480436D01*
G04 #@! TO.C,C5*
X63380252Y-156437000D02*
X62857748Y-156437000D01*
X63380252Y-154967000D02*
X62857748Y-154967000D01*
G04 #@! TO.C,D4*
X105362500Y-156237500D02*
X105362500Y-152337500D01*
X107362500Y-156237500D02*
X107362500Y-152337500D01*
X107362500Y-156237500D02*
X105362500Y-156237500D01*
G04 #@! TO.C,C2*
X68553000Y-141993252D02*
X68553000Y-141470748D01*
X67083000Y-141993252D02*
X67083000Y-141470748D01*
G04 #@! TO.C,D1*
X88312500Y-137187500D02*
X86312500Y-137187500D01*
X88312500Y-137187500D02*
X88312500Y-133287500D01*
X86312500Y-137187500D02*
X86312500Y-133287500D01*
G04 #@! TO.C,F1*
X32660000Y-143034936D02*
X32660000Y-144239064D01*
X30840000Y-143034936D02*
X30840000Y-144239064D01*
G04 #@! TD*
%LPC*%
D12*
G04 #@! TO.C,MX4*
X103505000Y-153987500D03*
X93345000Y-153987500D03*
D13*
X98425000Y-153987500D03*
D14*
X100965000Y-148907500D03*
X94615000Y-151447500D03*
G04 #@! TD*
D12*
G04 #@! TO.C,MX3*
X74295000Y-153987500D03*
X84455000Y-153987500D03*
D13*
X79375000Y-153987500D03*
D14*
X81915000Y-148907500D03*
X75565000Y-151447500D03*
G04 #@! TD*
D12*
G04 #@! TO.C,MX1*
X84455000Y-134937500D03*
D13*
X79375000Y-134937500D03*
D12*
X74295000Y-134937500D03*
D14*
X81915000Y-129857500D03*
X75565000Y-132397500D03*
G04 #@! TD*
D13*
G04 #@! TO.C,MX2*
X98425000Y-134937500D03*
D12*
X93345000Y-134937500D03*
X103505000Y-134937500D03*
D14*
X100965000Y-129857500D03*
X94615000Y-132397500D03*
G04 #@! TD*
D15*
G04 #@! TO.C,SW1*
X34111000Y-160600000D03*
X40311000Y-156900000D03*
X34111000Y-156900000D03*
X40311000Y-160600000D03*
G04 #@! TD*
D16*
G04 #@! TO.C,R1*
X35052000Y-136247500D03*
X35052000Y-138072500D03*
G04 #@! TD*
D17*
G04 #@! TO.C,C3*
X62682500Y-132781000D03*
X62682500Y-134681000D03*
G04 #@! TD*
D18*
G04 #@! TO.C,C4*
X53919500Y-134681000D03*
X53919500Y-132781000D03*
G04 #@! TD*
D19*
G04 #@! TO.C,USB1*
X38684000Y-131627000D03*
X37884000Y-131627000D03*
X37084000Y-131627000D03*
X36284000Y-131627000D03*
X35484000Y-131627000D03*
D20*
X40734000Y-131627000D03*
X33434000Y-127127000D03*
X40734000Y-127127000D03*
X33434000Y-131627000D03*
G04 #@! TD*
D21*
G04 #@! TO.C,C6*
X49083000Y-146050000D03*
X47183000Y-146050000D03*
G04 #@! TD*
D16*
G04 #@! TO.C,R2*
X38735000Y-136247500D03*
X38735000Y-138072500D03*
G04 #@! TD*
D22*
G04 #@! TO.C,U1*
X52847000Y-150685000D03*
X52847000Y-149885000D03*
X52847000Y-149085000D03*
X52847000Y-148285000D03*
X52847000Y-147485000D03*
X52847000Y-146685000D03*
X52847000Y-145885000D03*
X52847000Y-145085000D03*
X52847000Y-144285000D03*
X52847000Y-143485000D03*
X52847000Y-142685000D03*
D23*
X54547000Y-140985000D03*
X55347000Y-140985000D03*
X56147000Y-140985000D03*
X56947000Y-140985000D03*
X57747000Y-140985000D03*
X58547000Y-140985000D03*
X59347000Y-140985000D03*
X60147000Y-140985000D03*
X60947000Y-140985000D03*
X61747000Y-140985000D03*
X62547000Y-140985000D03*
D22*
X64247000Y-142685000D03*
X64247000Y-143485000D03*
X64247000Y-144285000D03*
X64247000Y-145085000D03*
X64247000Y-145885000D03*
X64247000Y-146685000D03*
X64247000Y-147485000D03*
X64247000Y-148285000D03*
X64247000Y-149085000D03*
X64247000Y-149885000D03*
X64247000Y-150685000D03*
D23*
X62547000Y-152385000D03*
X61747000Y-152385000D03*
X60947000Y-152385000D03*
X60147000Y-152385000D03*
X59347000Y-152385000D03*
X58547000Y-152385000D03*
X57747000Y-152385000D03*
X56947000Y-152385000D03*
X56147000Y-152385000D03*
X55347000Y-152385000D03*
X54547000Y-152385000D03*
G04 #@! TD*
D18*
G04 #@! TO.C,C1*
X50038000Y-139634000D03*
X50038000Y-137734000D03*
G04 #@! TD*
D24*
G04 #@! TO.C,D3*
X87312500Y-155637500D03*
X87312500Y-152337500D03*
G04 #@! TD*
G04 #@! TO.C,D2*
X106362500Y-136587500D03*
X106362500Y-133287500D03*
G04 #@! TD*
D25*
G04 #@! TO.C,C7*
X53025000Y-155702000D03*
X54925000Y-155702000D03*
G04 #@! TD*
D16*
G04 #@! TO.C,R4*
X67691000Y-150725500D03*
X67691000Y-152550500D03*
G04 #@! TD*
D26*
G04 #@! TO.C,Y1*
X59337500Y-134581000D03*
X57137500Y-134581000D03*
X57137500Y-132881000D03*
X59337500Y-132881000D03*
G04 #@! TD*
D27*
G04 #@! TO.C,R3*
X46736000Y-139620000D03*
X46736000Y-137795000D03*
G04 #@! TD*
D21*
G04 #@! TO.C,C5*
X64069000Y-155702000D03*
X62169000Y-155702000D03*
G04 #@! TD*
D24*
G04 #@! TO.C,D4*
X106362500Y-155637500D03*
X106362500Y-152337500D03*
G04 #@! TD*
D18*
G04 #@! TO.C,C2*
X67818000Y-142682000D03*
X67818000Y-140782000D03*
G04 #@! TD*
D24*
G04 #@! TO.C,D1*
X87312500Y-136587500D03*
X87312500Y-133287500D03*
G04 #@! TD*
D28*
G04 #@! TO.C,F1*
X31750000Y-142237000D03*
X31750000Y-145037000D03*
G04 #@! TD*
M02*
