G04 #@! TF.GenerationSoftware,KiCad,Pcbnew,(6.0.11)*
G04 #@! TF.CreationDate,2023-02-25T22:31:06-07:00*
G04 #@! TF.ProjectId,Stubborness,53747562-626f-4726-9e65-73732e6b6963,rev?*
G04 #@! TF.SameCoordinates,Original*
G04 #@! TF.FileFunction,Copper,L1,Top*
G04 #@! TF.FilePolarity,Positive*
%FSLAX46Y46*%
G04 Gerber Fmt 4.6, Leading zero omitted, Abs format (unit mm)*
G04 Created by KiCad (PCBNEW (6.0.11)) date 2023-02-25 22:31:06*
%MOMM*%
%LPD*%
G01*
G04 APERTURE LIST*
G04 #@! TA.AperFunction,ComponentPad*
%ADD10C,2.200000*%
G04 #@! TD*
G04 #@! TA.AperFunction,ComponentPad*
%ADD11O,1.700000X2.700000*%
G04 #@! TD*
G04 #@! TA.AperFunction,ViaPad*
%ADD12C,0.800000*%
G04 #@! TD*
G04 #@! TA.AperFunction,Conductor*
%ADD13C,0.381000*%
G04 #@! TD*
G04 #@! TA.AperFunction,Conductor*
%ADD14C,0.254000*%
G04 #@! TD*
G04 APERTURE END LIST*
D10*
G04 #@! TO.P,MX4,1,COL*
G04 #@! TO.N,COL1*
X100965000Y-148907500D03*
G04 #@! TO.P,MX4,2,ROW*
G04 #@! TO.N,Net-(D4-Pad2)*
X94615000Y-151447500D03*
G04 #@! TD*
G04 #@! TO.P,MX3,1,COL*
G04 #@! TO.N,COL1*
X81915000Y-148907500D03*
G04 #@! TO.P,MX3,2,ROW*
G04 #@! TO.N,Net-(D3-Pad2)*
X75565000Y-151447500D03*
G04 #@! TD*
G04 #@! TO.P,MX1,1,COL*
G04 #@! TO.N,COL0*
X81915000Y-129857500D03*
G04 #@! TO.P,MX1,2,ROW*
G04 #@! TO.N,Net-(D1-Pad2)*
X75565000Y-132397500D03*
G04 #@! TD*
G04 #@! TO.P,MX2,1,COL*
G04 #@! TO.N,COL0*
X100965000Y-129857500D03*
G04 #@! TO.P,MX2,2,ROW*
G04 #@! TO.N,Net-(D2-Pad2)*
X94615000Y-132397500D03*
G04 #@! TD*
D11*
G04 #@! TO.P,USB1,6,SHIELD*
G04 #@! TO.N,unconnected-(USB1-Pad6)*
X40734000Y-131627000D03*
X33434000Y-127127000D03*
X40734000Y-127127000D03*
X33434000Y-131627000D03*
G04 #@! TD*
D12*
G04 #@! TO.N,+5V*
X50927000Y-145288000D03*
X50419000Y-141732000D03*
X48307000Y-139620000D03*
X50927000Y-150749000D03*
X52959000Y-154178000D03*
X67818000Y-146050000D03*
X64135000Y-154178000D03*
G04 #@! TO.N,GND*
X60325000Y-155702000D03*
X67691000Y-155702000D03*
X32385000Y-155321000D03*
X41529000Y-142367000D03*
G04 #@! TO.N,Net-(C4-Pad2)*
X57658000Y-136906000D03*
X57094500Y-131191000D03*
G04 #@! TO.N,ROW0*
X89408000Y-155702000D03*
X89281000Y-136525000D03*
G04 #@! TO.N,Net-(D1-Pad2)*
X87249000Y-131572000D03*
G04 #@! TO.N,ROW1*
X106426000Y-157607000D03*
X106426000Y-138430000D03*
G04 #@! TO.N,Net-(D2-Pad2)*
X106299000Y-131445000D03*
G04 #@! TO.N,Net-(D3-Pad2)*
X87249000Y-150495000D03*
G04 #@! TO.N,Net-(D4-Pad2)*
X106299000Y-150368000D03*
G04 #@! TO.N,COL0*
X65913000Y-145161000D03*
G04 #@! TO.N,COL1*
X66802000Y-145669000D03*
G04 #@! TO.N,Net-(R3-Pad2)*
X44450000Y-137795000D03*
X42926000Y-156845000D03*
X54483000Y-139192000D03*
G04 #@! TD*
D13*
G04 #@! TO.N,+5V*
X50419000Y-141732000D02*
X50927000Y-142240000D01*
X50927000Y-150749000D02*
X50927000Y-154178000D01*
X52959000Y-154178000D02*
X66040000Y-154178000D01*
X50927000Y-154178000D02*
X52959000Y-154178000D01*
X48307000Y-139620000D02*
X50419000Y-141732000D01*
X66040000Y-154178000D02*
X66167000Y-154051000D01*
X66167000Y-154051000D02*
X66167000Y-147701000D01*
X50927000Y-142240000D02*
X50927000Y-145288000D01*
X50927000Y-145288000D02*
X50927000Y-150749000D01*
X66167000Y-147701000D02*
X67818000Y-146050000D01*
G04 #@! TO.N,GND*
X32385000Y-155321000D02*
X32385000Y-151511000D01*
X67691000Y-155702000D02*
X60325000Y-155702000D01*
X32385000Y-151511000D02*
X41529000Y-142367000D01*
D14*
G04 #@! TO.N,Net-(C4-Pad2)*
X57094500Y-136342500D02*
X57658000Y-136906000D01*
X57094500Y-131191000D02*
X57094500Y-136342500D01*
G04 #@! TO.N,ROW0*
X89408000Y-136652000D02*
X89281000Y-136525000D01*
X89408000Y-155702000D02*
X89408000Y-136652000D01*
G04 #@! TO.N,Net-(D1-Pad2)*
X75565000Y-132397500D02*
X86423500Y-132397500D01*
X86423500Y-132397500D02*
X87249000Y-131572000D01*
G04 #@! TO.N,ROW1*
X107315000Y-156718000D02*
X107315000Y-139319000D01*
X106426000Y-157607000D02*
X107315000Y-156718000D01*
X107315000Y-139319000D02*
X106426000Y-138430000D01*
G04 #@! TO.N,Net-(D2-Pad2)*
X105346500Y-132397500D02*
X106299000Y-131445000D01*
X94615000Y-132397500D02*
X105346500Y-132397500D01*
G04 #@! TO.N,Net-(D3-Pad2)*
X75565000Y-151447500D02*
X86296500Y-151447500D01*
X86296500Y-151447500D02*
X87249000Y-150495000D01*
G04 #@! TO.N,Net-(D4-Pad2)*
X94615000Y-151447500D02*
X105219500Y-151447500D01*
X105219500Y-151447500D02*
X106299000Y-150368000D01*
G04 #@! TO.N,COL0*
X71882000Y-129794000D02*
X71945500Y-129857500D01*
X71882000Y-139192000D02*
X71882000Y-129794000D01*
X65913000Y-145161000D02*
X71882000Y-139192000D01*
X71945500Y-129857500D02*
X81915000Y-129857500D01*
G04 #@! TO.N,COL1*
X67183000Y-145288000D02*
X81915000Y-145288000D01*
X66802000Y-145669000D02*
X67183000Y-145288000D01*
X81915000Y-145288000D02*
X81915000Y-148907500D01*
G04 #@! TO.N,Net-(R3-Pad2)*
X53594000Y-138303000D02*
X53594000Y-137795000D01*
X44450000Y-137795000D02*
X44450000Y-155321000D01*
X44450000Y-155321000D02*
X42926000Y-156845000D01*
X44450000Y-137795000D02*
X53594000Y-137795000D01*
X54483000Y-139192000D02*
X53594000Y-138303000D01*
G04 #@! TD*
G04 #@! TA.AperFunction,NonConductor*
G36*
X65153201Y-140206811D02*
G01*
X65221127Y-140227461D01*
X65267107Y-140281557D01*
X65278000Y-140332805D01*
X65278000Y-144460141D01*
X65257998Y-144528262D01*
X65245638Y-144544450D01*
X65173960Y-144624056D01*
X65078473Y-144789444D01*
X65019458Y-144971072D01*
X64999496Y-145161000D01*
X65019458Y-145350928D01*
X65078473Y-145532556D01*
X65173960Y-145697944D01*
X65178378Y-145702851D01*
X65178379Y-145702852D01*
X65245636Y-145777548D01*
X65276353Y-145841556D01*
X65278000Y-145861859D01*
X65278000Y-153163000D01*
X65257998Y-153231121D01*
X65204342Y-153277614D01*
X65152000Y-153289000D01*
X64335472Y-153289000D01*
X64309275Y-153286247D01*
X64236944Y-153270872D01*
X64236939Y-153270872D01*
X64230487Y-153269500D01*
X64039513Y-153269500D01*
X64033061Y-153270872D01*
X64033056Y-153270872D01*
X63960725Y-153286247D01*
X63934528Y-153289000D01*
X53159472Y-153289000D01*
X53133275Y-153286247D01*
X53060944Y-153270872D01*
X53060939Y-153270872D01*
X53054487Y-153269500D01*
X52863513Y-153269500D01*
X52857061Y-153270872D01*
X52857056Y-153270872D01*
X52784725Y-153286247D01*
X52758528Y-153289000D01*
X52069000Y-153289000D01*
X52000879Y-153268998D01*
X51954386Y-153215342D01*
X51943000Y-153163000D01*
X51943000Y-140208205D01*
X51963002Y-140140084D01*
X52016658Y-140093591D01*
X52070198Y-140082211D01*
X65153201Y-140206811D01*
G37*
G04 #@! TD.AperFunction*
G04 #@! TA.AperFunction,NonConductor*
G36*
X39433347Y-125941002D02*
G01*
X39479840Y-125994658D01*
X39489944Y-126064932D01*
X39483665Y-126089991D01*
X39453125Y-126174128D01*
X39417663Y-126271825D01*
X39416714Y-126277074D01*
X39416713Y-126277077D01*
X39377377Y-126494608D01*
X39377376Y-126494615D01*
X39376639Y-126498692D01*
X39375500Y-126522844D01*
X39375500Y-127684890D01*
X39390080Y-127856720D01*
X39391418Y-127861875D01*
X39391419Y-127861881D01*
X39446657Y-128074703D01*
X39447999Y-128079872D01*
X39542688Y-128290075D01*
X39671441Y-128481319D01*
X39830576Y-128648135D01*
X40015542Y-128785754D01*
X40020293Y-128788170D01*
X40020297Y-128788172D01*
X40118297Y-128837997D01*
X40221051Y-128890240D01*
X40226145Y-128891822D01*
X40226148Y-128891823D01*
X40426020Y-128953885D01*
X40441227Y-128958607D01*
X40446516Y-128959308D01*
X40664489Y-128988198D01*
X40664494Y-128988198D01*
X40669774Y-128988898D01*
X40675104Y-128988698D01*
X40675106Y-128988698D01*
X40697112Y-128987872D01*
X40765935Y-129005305D01*
X40814408Y-129057179D01*
X40827817Y-129116074D01*
X40818195Y-129645284D01*
X40796958Y-129713029D01*
X40742466Y-129758539D01*
X40696943Y-129768904D01*
X40608814Y-129772213D01*
X40567842Y-129773751D01*
X40342209Y-129821093D01*
X40337250Y-129823051D01*
X40337248Y-129823052D01*
X40132744Y-129903815D01*
X40132742Y-129903816D01*
X40127779Y-129905776D01*
X40123220Y-129908543D01*
X40123217Y-129908544D01*
X40024832Y-129968246D01*
X39930683Y-130025377D01*
X39926653Y-130028874D01*
X39833484Y-130109722D01*
X39756555Y-130176477D01*
X39753168Y-130180608D01*
X39613760Y-130350627D01*
X39613756Y-130350633D01*
X39610376Y-130354755D01*
X39496325Y-130555114D01*
X39417663Y-130771825D01*
X39416714Y-130777074D01*
X39416713Y-130777077D01*
X39377377Y-130994608D01*
X39377376Y-130994615D01*
X39376639Y-130998692D01*
X39375500Y-131022844D01*
X39375500Y-132184890D01*
X39375725Y-132187539D01*
X39389530Y-132350243D01*
X39375359Y-132419811D01*
X39325826Y-132470674D01*
X39266154Y-132486877D01*
X34888835Y-132562348D01*
X34820381Y-132543524D01*
X34772970Y-132490677D01*
X34762675Y-132413946D01*
X34790623Y-132259392D01*
X34790624Y-132259385D01*
X34791361Y-132255308D01*
X34792500Y-132231156D01*
X34792500Y-131069110D01*
X34777920Y-130897280D01*
X34776582Y-130892125D01*
X34776581Y-130892119D01*
X34721343Y-130679297D01*
X34721342Y-130679293D01*
X34720001Y-130674128D01*
X34625312Y-130463925D01*
X34496559Y-130272681D01*
X34337424Y-130105865D01*
X34152458Y-129968246D01*
X34147707Y-129965830D01*
X34147703Y-129965828D01*
X34025731Y-129903815D01*
X33946949Y-129863760D01*
X33941855Y-129862178D01*
X33941852Y-129862177D01*
X33731871Y-129796976D01*
X33726773Y-129795393D01*
X33721484Y-129794692D01*
X33503511Y-129765802D01*
X33503506Y-129765802D01*
X33498226Y-129765102D01*
X33492897Y-129765302D01*
X33492895Y-129765302D01*
X33426588Y-129767791D01*
X33357765Y-129750359D01*
X33309292Y-129698485D01*
X33295942Y-129646377D01*
X33277080Y-129118236D01*
X33294638Y-129049445D01*
X33346600Y-129001067D01*
X33398273Y-128987828D01*
X33600158Y-128980249D01*
X33825791Y-128932907D01*
X33830750Y-128930949D01*
X33830752Y-128930948D01*
X34035256Y-128850185D01*
X34035258Y-128850184D01*
X34040221Y-128848224D01*
X34139184Y-128788172D01*
X34232757Y-128731390D01*
X34232756Y-128731390D01*
X34237317Y-128728623D01*
X34241347Y-128725126D01*
X34407412Y-128581023D01*
X34407414Y-128581021D01*
X34411445Y-128577523D01*
X34445516Y-128535970D01*
X34554240Y-128403373D01*
X34554244Y-128403367D01*
X34557624Y-128399245D01*
X34671675Y-128198886D01*
X34750337Y-127982175D01*
X34773023Y-127856720D01*
X34790623Y-127759392D01*
X34790624Y-127759385D01*
X34791361Y-127755308D01*
X34792500Y-127731156D01*
X34792500Y-126569110D01*
X34777920Y-126397280D01*
X34776582Y-126392125D01*
X34776581Y-126392119D01*
X34721343Y-126179297D01*
X34721342Y-126179293D01*
X34720001Y-126174128D01*
X34686046Y-126098750D01*
X34676305Y-126028425D01*
X34706131Y-125963997D01*
X34766054Y-125925922D01*
X34800928Y-125921000D01*
X39365226Y-125921000D01*
X39433347Y-125941002D01*
G37*
G04 #@! TD.AperFunction*
G04 #@! TA.AperFunction,NonConductor*
G36*
X67379121Y-129687002D02*
G01*
X67425614Y-129740658D01*
X67437000Y-129793000D01*
X67437000Y-139574000D01*
X67416998Y-139642121D01*
X67363342Y-139688614D01*
X67311000Y-139700000D01*
X55446618Y-139700000D01*
X55378497Y-139679998D01*
X55332004Y-139626342D01*
X55321900Y-139556068D01*
X55326785Y-139535064D01*
X55374502Y-139388206D01*
X55376542Y-139381928D01*
X55382328Y-139326882D01*
X55395814Y-139198565D01*
X55396504Y-139192000D01*
X55386386Y-139095733D01*
X55377232Y-139008635D01*
X55377232Y-139008633D01*
X55376542Y-139002072D01*
X55317527Y-138820444D01*
X55222040Y-138655056D01*
X55094253Y-138513134D01*
X54995157Y-138441136D01*
X54945094Y-138404763D01*
X54945093Y-138404762D01*
X54939752Y-138400882D01*
X54933724Y-138398198D01*
X54933722Y-138398197D01*
X54771319Y-138325891D01*
X54771318Y-138325891D01*
X54765288Y-138323206D01*
X54671888Y-138303353D01*
X54584944Y-138284872D01*
X54584939Y-138284872D01*
X54578487Y-138283500D01*
X54525423Y-138283500D01*
X54457302Y-138263498D01*
X54436328Y-138246595D01*
X54266405Y-138076672D01*
X54232379Y-138014360D01*
X54229500Y-137987577D01*
X54229500Y-137866983D01*
X54231732Y-137843374D01*
X54231802Y-137843009D01*
X54231802Y-137843004D01*
X54233287Y-137835221D01*
X54229749Y-137778986D01*
X54229500Y-137771075D01*
X54229500Y-137755017D01*
X54229003Y-137751082D01*
X54227487Y-137739077D01*
X54226743Y-137731201D01*
X54223703Y-137682884D01*
X54223703Y-137682882D01*
X54223205Y-137674973D01*
X54220756Y-137667435D01*
X54220755Y-137667431D01*
X54220641Y-137667080D01*
X54215469Y-137643944D01*
X54215421Y-137643565D01*
X54215420Y-137643560D01*
X54214427Y-137635701D01*
X54211511Y-137628336D01*
X54211510Y-137628332D01*
X54193680Y-137583300D01*
X54190998Y-137575850D01*
X54176038Y-137529806D01*
X54176037Y-137529803D01*
X54173588Y-137522267D01*
X54169345Y-137515580D01*
X54169343Y-137515577D01*
X54169140Y-137515258D01*
X54158374Y-137494128D01*
X54158237Y-137493783D01*
X54155319Y-137486412D01*
X54122196Y-137440821D01*
X54117749Y-137434277D01*
X54091805Y-137393396D01*
X54091802Y-137393393D01*
X54087553Y-137386697D01*
X54081504Y-137381017D01*
X54065818Y-137363224D01*
X54065602Y-137362927D01*
X54060942Y-137356513D01*
X54017523Y-137320594D01*
X54011592Y-137315364D01*
X53984069Y-137289519D01*
X53970506Y-137276783D01*
X53963562Y-137272965D01*
X53963560Y-137272964D01*
X53963232Y-137272784D01*
X53943621Y-137259456D01*
X53943338Y-137259222D01*
X53943334Y-137259219D01*
X53937224Y-137254165D01*
X53886236Y-137230172D01*
X53879204Y-137226590D01*
X53829803Y-137199431D01*
X53822129Y-137197461D01*
X53822127Y-137197460D01*
X53821924Y-137197408D01*
X53821765Y-137197367D01*
X53799452Y-137189334D01*
X53799116Y-137189176D01*
X53799113Y-137189175D01*
X53791941Y-137185800D01*
X53784156Y-137184315D01*
X53784153Y-137184314D01*
X53736588Y-137175241D01*
X53728863Y-137173514D01*
X53705684Y-137167563D01*
X53674282Y-137159500D01*
X53665983Y-137159500D01*
X53642374Y-137157268D01*
X53642009Y-137157198D01*
X53642004Y-137157198D01*
X53634221Y-137155713D01*
X53577987Y-137159251D01*
X53570075Y-137159500D01*
X49876257Y-137159500D01*
X49808136Y-137139498D01*
X49761643Y-137085842D01*
X49750267Y-137035095D01*
X49741956Y-136378527D01*
X49676291Y-131191000D01*
X56180996Y-131191000D01*
X56200958Y-131380928D01*
X56259973Y-131562556D01*
X56355460Y-131727944D01*
X56359878Y-131732851D01*
X56359879Y-131732852D01*
X56426636Y-131806993D01*
X56457354Y-131871000D01*
X56459000Y-131891303D01*
X56459000Y-136263480D01*
X56458470Y-136274714D01*
X56456792Y-136282219D01*
X56457041Y-136290138D01*
X56458938Y-136350512D01*
X56459000Y-136354469D01*
X56459000Y-136382483D01*
X56459496Y-136386408D01*
X56459496Y-136386409D01*
X56459508Y-136386504D01*
X56460441Y-136398349D01*
X56461835Y-136442705D01*
X56464047Y-136450317D01*
X56467513Y-136462248D01*
X56471523Y-136481612D01*
X56474073Y-136501799D01*
X56476989Y-136509163D01*
X56476990Y-136509168D01*
X56490407Y-136543056D01*
X56494252Y-136554285D01*
X56506631Y-136596893D01*
X56510669Y-136603720D01*
X56510670Y-136603723D01*
X56516988Y-136614406D01*
X56525688Y-136632164D01*
X56530261Y-136643715D01*
X56530265Y-136643721D01*
X56533181Y-136651088D01*
X56537839Y-136657499D01*
X56537840Y-136657501D01*
X56559264Y-136686988D01*
X56565781Y-136696910D01*
X56584326Y-136728268D01*
X56584329Y-136728272D01*
X56588366Y-136735098D01*
X56602750Y-136749482D01*
X56615591Y-136764516D01*
X56627558Y-136780987D01*
X56633666Y-136786040D01*
X56661755Y-136809277D01*
X56670535Y-136817267D01*
X56711210Y-136857942D01*
X56745236Y-136920254D01*
X56747425Y-136933865D01*
X56764458Y-137095928D01*
X56823473Y-137277556D01*
X56826776Y-137283278D01*
X56826777Y-137283279D01*
X56846864Y-137318071D01*
X56918960Y-137442944D01*
X56923378Y-137447851D01*
X56923379Y-137447852D01*
X56965046Y-137494128D01*
X57046747Y-137584866D01*
X57106573Y-137628332D01*
X57181657Y-137682884D01*
X57201248Y-137697118D01*
X57207276Y-137699802D01*
X57207278Y-137699803D01*
X57340195Y-137758981D01*
X57375712Y-137774794D01*
X57469112Y-137794647D01*
X57556056Y-137813128D01*
X57556061Y-137813128D01*
X57562513Y-137814500D01*
X57753487Y-137814500D01*
X57759939Y-137813128D01*
X57759944Y-137813128D01*
X57846888Y-137794647D01*
X57940288Y-137774794D01*
X57975805Y-137758981D01*
X58108722Y-137699803D01*
X58108724Y-137699802D01*
X58114752Y-137697118D01*
X58134344Y-137682884D01*
X58209427Y-137628332D01*
X58269253Y-137584866D01*
X58350954Y-137494128D01*
X58392621Y-137447852D01*
X58392622Y-137447851D01*
X58397040Y-137442944D01*
X58469136Y-137318071D01*
X58489223Y-137283279D01*
X58489224Y-137283278D01*
X58492527Y-137277556D01*
X58551542Y-137095928D01*
X58571504Y-136906000D01*
X58555791Y-136756497D01*
X58552232Y-136722635D01*
X58552232Y-136722633D01*
X58551542Y-136716072D01*
X58492527Y-136534444D01*
X58397040Y-136369056D01*
X58382120Y-136352485D01*
X58273675Y-136232045D01*
X58273674Y-136232044D01*
X58269253Y-136227134D01*
X58114752Y-136114882D01*
X58108724Y-136112198D01*
X58108722Y-136112197D01*
X57946319Y-136039891D01*
X57946318Y-136039891D01*
X57940288Y-136037206D01*
X57829802Y-136013721D01*
X57767330Y-135979994D01*
X57733008Y-135917844D01*
X57730000Y-135890475D01*
X57730000Y-131891303D01*
X57750002Y-131823182D01*
X57762364Y-131806993D01*
X57829121Y-131732852D01*
X57829122Y-131732851D01*
X57833540Y-131727944D01*
X57929027Y-131562556D01*
X57988042Y-131380928D01*
X58008004Y-131191000D01*
X57988042Y-131001072D01*
X57929027Y-130819444D01*
X57833540Y-130654056D01*
X57705753Y-130512134D01*
X57551252Y-130399882D01*
X57545224Y-130397198D01*
X57545222Y-130397197D01*
X57382819Y-130324891D01*
X57382818Y-130324891D01*
X57376788Y-130322206D01*
X57283387Y-130302353D01*
X57196444Y-130283872D01*
X57196439Y-130283872D01*
X57189987Y-130282500D01*
X56999013Y-130282500D01*
X56992561Y-130283872D01*
X56992556Y-130283872D01*
X56905613Y-130302353D01*
X56812212Y-130322206D01*
X56806182Y-130324891D01*
X56806181Y-130324891D01*
X56643778Y-130397197D01*
X56643776Y-130397198D01*
X56637748Y-130399882D01*
X56483247Y-130512134D01*
X56355460Y-130654056D01*
X56259973Y-130819444D01*
X56200958Y-131001072D01*
X56180996Y-131191000D01*
X49676291Y-131191000D01*
X49658615Y-129794595D01*
X49677753Y-129726226D01*
X49730816Y-129679058D01*
X49784605Y-129667000D01*
X67311000Y-129667000D01*
X67379121Y-129687002D01*
G37*
G04 #@! TD.AperFunction*
G04 #@! TA.AperFunction,NonConductor*
G36*
X52942783Y-138450502D02*
G01*
X52989276Y-138504158D01*
X52995659Y-138521348D01*
X53006131Y-138557393D01*
X53010169Y-138564220D01*
X53010170Y-138564223D01*
X53016488Y-138574906D01*
X53025188Y-138592664D01*
X53029761Y-138604215D01*
X53029765Y-138604221D01*
X53032681Y-138611588D01*
X53037339Y-138617999D01*
X53037340Y-138618001D01*
X53058764Y-138647488D01*
X53065281Y-138657410D01*
X53083826Y-138688768D01*
X53083829Y-138688772D01*
X53087866Y-138695598D01*
X53102250Y-138709982D01*
X53115091Y-138725016D01*
X53127058Y-138741487D01*
X53133166Y-138746540D01*
X53161255Y-138769777D01*
X53170035Y-138777767D01*
X53536210Y-139143942D01*
X53570236Y-139206254D01*
X53572425Y-139219867D01*
X53583673Y-139326882D01*
X53589458Y-139381928D01*
X53591498Y-139388206D01*
X53639215Y-139535064D01*
X53641243Y-139606031D01*
X53604580Y-139666829D01*
X53540868Y-139698155D01*
X53519382Y-139700000D01*
X49908415Y-139700000D01*
X49840294Y-139679998D01*
X49793801Y-139626342D01*
X49782425Y-139575595D01*
X49780053Y-139388206D01*
X49769545Y-138558093D01*
X49788683Y-138489726D01*
X49841746Y-138442558D01*
X49895535Y-138430500D01*
X52874662Y-138430500D01*
X52942783Y-138450502D01*
G37*
G04 #@! TD.AperFunction*
M02*
